<?xml version="1.0" encoding="UTF-8"?>
<svg id="Layer_1" xmlns="http://www.w3.org/2000/svg" version="1.1" viewBox="0 0 309 41.1">
  <!-- Generator: Adobe Illustrator 29.0.1, SVG Export Plug-In . SVG Version: 2.1.0 Build 192)  -->
  <defs>
    <style>
      .st0 {
        fill: none;
      }

      .st1 {
        fill: #bf0000;
      }
    </style>
  </defs>
  <g>
    <g>
      <polygon class="st1" points="111.3 34.5 27.6 34.5 34.3 41.1 111.3 34.5"/>
      <path class="st1" d="M35.4,7.5v1c-1.5-1-3-1.6-4.8-1.6-5.9,0-10.3,5.3-10.3,11.9s4.5,11.9,10.3,11.9,3.3-.6,4.8-1.6v1h5.2V7.5h-5.2ZM30.5,25.3c-2.9,0-5-2.8-5-6.4s2.1-6.4,5-6.4,4.9,2.9,4.9,6.4-2,6.4-4.9,6.4Z"/>
      <path class="st1" d="M76.6,7.5v13.3c0,2.5-1.7,4.6-4.2,4.6s-4.2-2.1-4.2-4.6V7.5h-5.2v13.3c0,5.5,3.7,9.9,9.2,9.9s4.4-1.4,4.4-1.4v.8h5.2V7.5s-5.2,0-5.1,0Z"/>
      <path class="st1" d="M124.6,30.2v-13.3c0-2.5,1.7-4.6,4.2-4.6s4.2,2.1,4.2,4.6v13.3h5.1v-13.3c0-5.5-3.7-9.9-9.2-9.9s-4.4,1.4-4.4,1.4v-.8h-5.1v22.7h5.2Z"/>
      <path class="st1" d="M5.4,30.2v-8.8h3.8l6.6,8.8h6.7l-8-10.6c2.5-1.8,4.1-4.7,4.1-8,0-5.4-4.4-9.8-9.8-9.8H0v28.4h5.4ZM5.4,7.3h3.5c2.4,0,4.4,2,4.4,4.4s-2,4.4-4.4,4.4h-3.5s0-8.8,0-8.8Z"/>
      <path class="st1" d="M95.7,24.9c-.5.3-1.1.6-1.7.6s-2.4-.6-2.4-2.8v-9.7h4.4v-5.4h-4.4V1.9h-5.2v5.6h-2.7v5.4h2.7v9.8c0,5.1,3.8,8.1,7.7,8.1s3.4-.5,5-1.4l-3.4-4.5h0Z"/>
      <polygon class="st1" points="53.3 18.2 62.2 7.5 55 7.5 48.8 15.4 48.8 0 43.5 0 43.5 30.2 48.8 30.2 48.8 20.9 56.4 30.2 63.6 30.2 53.3 18.2"/>
      <path class="st1" d="M107.6,6.9c-6,0-10.2,5.2-10.2,11.9s5.4,11.9,10.8,11.9,6.2-.9,9.1-5.1l-4.6-2.6c-3.5,5.2-9.4,2.5-10.1-2.6h14.8c1.3-8.1-4-13.5-9.9-13.5h0ZM112.1,15.9h-9.3c1.1-5.3,8.3-5.6,9.3,0Z"/>
    </g>
    <g>
      <path class="st1" d="M214.6,8.5h4.5l.4,3.5c.7-1.2,1.6-2.2,2.7-2.9,1.1-.7,2.4-1.1,3.8-1.1s2.8.4,3.9,1.2c1.1.8,2,2,2.6,3.5.7-1.5,1.6-2.6,2.9-3.4s2.6-1.2,4.2-1.2c2.3,0,4.1.9,5.4,2.5,1.3,1.7,1.9,4.2,1.9,7.4v12.3h-5.3v-12c0-1.7-.3-3.1-1-4s-1.6-1.4-2.7-1.4-2.5.6-3.3,1.7-1.3,2.6-1.3,4.2v11.3h-5.3v-12c0-1.7-.3-3.1-1-4s-1.6-1.4-2.7-1.4-2.5.6-3.3,1.7-1.2,2.5-1.2,4.2v11.3h-5.3V8.5h0Z"/>
      <path class="st1" d="M249.3,19.4c0-2.2.4-4.2,1.3-5.9.9-1.7,2.1-3.1,3.6-4s3.3-1.5,5.3-1.5,3.7.5,5.2,1.4c1.5,1,2.7,2.3,3.5,4s1.3,3.7,1.3,5.9v1.5h-14.9c.5,3.7,2.5,5.5,6,5.5s4.5-1.1,6.3-3.2l2.3,3.9c-1.1,1.2-2.5,2.1-4.1,2.8-1.6.7-3.2,1-5,1s-4.2-.5-5.8-1.4c-1.6-.9-2.9-2.3-3.8-4-.9-1.7-1.3-3.7-1.3-6h0ZM254.8,17.2h9.5c-.2-1.6-.7-2.8-1.5-3.7-.8-.9-1.9-1.3-3.2-1.3s-2.4.4-3.2,1.3c-.8.9-1.4,2.1-1.6,3.7Z"/>
      <path class="st1" d="M271.8,8.5h4.5l.4,3.5c.7-1.3,1.6-2.3,2.9-3s2.5-1.1,4-1.1c2.3,0,4.2.9,5.5,2.6s2,4.2,2,7.3v12.3h-5.3v-12c0-1.7-.4-3.1-1.1-4s-1.7-1.4-3-1.4-2.6.6-3.5,1.7-1.3,2.5-1.3,4.2v11.4h-5.3V8.5h0Z"/>
      <path class="st1" d="M296.4,22.6v-9.5h-3.5v-4.6h3.5V3.1h5.3v5.4h7v4.6h-7v9.3c0,2.3.9,3.4,2.6,3.4s2.5-.5,3.7-1.4l1,4.8c-.7.5-1.6.8-2.5,1.1-1,.2-2,.4-3,.4-4.7,0-7-2.7-7-8.1Z"/>
      <path class="st1" d="M163.5,5.7c-1.9-1.6-4.5-2.4-7.8-2.4h-9v26.9h5.4v-8.8h3.6c3.2,0,5.8-.8,7.8-2.4,1.9-1.6,2.9-3.8,2.9-6.6s-1-5.1-2.9-6.7h0ZM159.3,15.6c-1,.7-2.3,1-3.9,1h-3.2v-8.6h3.2c1.6,0,2.9.3,3.9,1,1,.7,1.5,1.8,1.5,3.3s-.5,2.6-1.5,3.3h0Z"/>
      <path class="st1" d="M183.8,12.1c-.6-1.2-1.5-2.2-2.7-3-1.2-.8-2.6-1.1-4.1-1.1s-3.4.5-4.9,1.4c-1.4,1-2.6,2.3-3.5,4-.9,1.7-1.3,3.7-1.3,5.9s.4,4.2,1.3,5.9,2,3,3.5,4c1.4,1,3.1,1.4,4.9,1.4s2.9-.4,4.1-1.1c1.2-.7,2.1-1.7,2.7-3l.4,3.6h4.5V8.5h-4.5l-.4,3.6h0ZM182,24c-1,1.2-2.3,1.8-3.9,1.8s-2.8-.6-3.8-1.8c-1-1.2-1.5-2.8-1.5-4.7s.5-3.5,1.5-4.7c1-1.2,2.3-1.8,3.8-1.8s2.9.6,3.9,1.8c1,1.2,1.5,2.8,1.5,4.7s-.5,3.5-1.5,4.7Z"/>
      <polygon class="st1" points="213.4 8.5 207.7 8.5 202.1 21.5 196.5 8.5 190.4 8.5 199.2 26.8 194.4 36.4 199.9 36.4 213.4 8.5"/>
    </g>
  </g>
  <rect class="st0" y="1.9" width="309" height="32.6"/>
</svg>